<svg id="Layer_5" enable-background="new 0 0 58 62" height="512" viewBox="0 0 58 62" width="512" xmlns="http://www.w3.org/2000/svg"><g><g><g><path d="m55 42.46v18.54h-4v-8-10.54c.59.34 1.27.54 2 .54s1.41-.2 2-.54z" fill="#cf9e76"/></g><g><path d="m7 53v8h-4v-18.54c.59.34 1.27.54 2 .54s1.41-.2 2-.54z" fill="#cf9e76"/></g><g><path d="m32 21c2.76 0 5-2.24 5-5v-1h4v9c0 1.66 1.34 3 3 3h6c1.66 0 3-1.34 3-3v-9c2.21 0 4 1.79 4 4v12h-30.91l.3-.65c.32-1.03.08-2.19-.73-3.01-.82-.81-1.98-1.05-3.01-.73-.51-.95-1.5-1.61-2.65-1.61s-2.14.66-2.65 1.61c-1.03-.32-2.19-.08-3.01.73-.81.82-1.05 1.98-.73 3.01l.22.65h-12.83v-8.75c.1.14.21.28.34.41.82.81 1.98 1.05 3.01.73.51.95 1.5 1.61 2.65 1.61s2.14-.66 2.65-1.61c1.03.32 2.19.08 3.01-.73.81-.82 1.05-1.98.73-3.01.95-.51 1.61-1.5 1.61-2.65 0-.77-.3-1.47-.78-2h12.78v1c0 2.76 2.24 5 5 5z" fill="#ffeaa7"/></g><g><path d="m37 15v1c0 2.76-2.24 5-5 5s-5-2.24-5-5v-1-4h10z" fill="#ccd1d9"/></g><g><path d="m41 39c0 2.21-1.79 4-4 4-1.1 0-2.1-.45-2.83-1.17-.72-.73-1.17-1.73-1.17-2.83 0 2.21-1.79 4-4 4-1.1 0-2.1-.45-2.83-1.17-.72-.73-1.17-1.73-1.17-2.83 0 2.21-1.79 4-4 4-1.1 0-2.1-.45-2.83-1.17-.72-.73-1.17-1.73-1.17-2.83 0 2.21-1.79 4-4 4-1.1 0-2.1-.45-2.83-1.17-.72-.73-1.17-1.73-1.17-2.83 0 1.48-.8 2.77-2 3.46-.59.34-1.27.54-2 .54s-1.41-.2-2-.54c-.3-.17-.58-.39-.83-.63-.72-.73-1.17-1.73-1.17-2.83v-8h12.83 12.26 30.91v8c0 1.48-.8 2.77-2 3.46-.59.34-1.27.54-2 .54s-1.41-.2-2-.54c-.3-.17-.58-.39-.83-.63-.72-.73-1.17-1.73-1.17-2.83 0 2.21-1.79 4-4 4-1.1 0-2.1-.45-2.83-1.17-.72-.73-1.17-1.73-1.17-2.83z" fill="#fcd770"/></g><g><path d="m53 15v9c0 1.66-1.34 3-3 3h-6c-1.66 0-3-1.34-3-3v-9-1.84c0-1.29.83-2.44 2.05-2.84l.95-.32 1-5h4l1 5 .95.32c1.22.4 2.05 1.55 2.05 2.84z" fill="#ecc19c"/></g><g><path d="m51 3v1c0 .55-.45 1-1 1h-1-4-1c-.55 0-1-.45-1-1v-1c0-1.1.9-2 2-2h4c1.1 0 2 .9 2 2z" fill="#d3a06c"/></g><g><path d="m25.66 27.34c.81.82 1.05 1.98.73 3.01l-.3.65h-12.26l-.22-.65c-.32-1.03-.08-2.19.73-3.01.82-.81 1.98-1.05 3.01-.73.51-.95 1.5-1.61 2.65-1.61s2.14.66 2.65 1.61c1.03-.32 2.19-.08 3.01.73z" fill="#ff826e"/></g><g><path d="m15 17c0-.77-.3-1.47-.78-2h-7.22-2c-2.21 0-4 1.79-4 4v3.25c.1.14.21.28.34.41.82.81 1.98 1.05 3.01.73.51.95 1.5 1.61 2.65 1.61s2.14-.66 2.65-1.61c1.03.32 2.19.08 3.01-.73.81-.82 1.05-1.98.73-3.01.95-.51 1.61-1.5 1.61-2.65z" fill="#ff826e"/></g><g><circle cx="7" cy="17" fill="#fc6e51" r="2"/></g></g><g><path d="m54 14.101v-.939c0-1.725-1.099-3.25-2.735-3.794l-.398-.133-.651-3.257c1-.109 1.784-.949 1.784-1.978v-1c0-1.654-1.346-3-3-3h-4c-1.654 0-3 1.346-3 3v1c0 1.029.784 1.869 1.785 1.978l-.651 3.257-.398.133c-1.637.545-2.736 2.07-2.736 3.794v.838h-2v-4h-12v4h-21c-2.757 0-5 2.243-5 5v20c0 1.627.793 3.061 2 3.974v19.026h6v-8h42v8h6v-19.026c1.207-.914 2-2.348 2-3.974v-20c0-2.414-1.721-4.434-4-4.899zm-10-11.101c0-.551.449-1 1-1h4c.551 0 1 .449 1 1l.001 1h-6.001zm-2 10.162c0-.862.549-1.625 1.368-1.897l1.499-.5.953-4.765h2.361l.953 4.765 1.5.5c.817.273 1.366 1.035 1.366 1.897v10.838c0 1.103-.897 2-2 2h-6c-1.103 0-2-.897-2-2zm-14-1.162h8v4c0 2.206-1.794 4-4 4s-4-1.794-4-4zm3 9.91v4.09h-2v2h6v-2h-2v-4.09c2.833-.478 5-2.942 5-5.91h2v8c0 2.206 1.794 4 4 4h6c2.206 0 4-1.794 4-4v-7.816c1.161.414 2 1.514 2 2.816v11h-28.519c.171-1.23-.228-2.474-1.117-3.364-.863-.864-2.062-1.271-3.257-1.137-.751-.939-1.885-1.499-3.107-1.499s-2.356.56-3.107 1.5c-1.193-.133-2.393.273-3.257 1.137-.886.885-1.284 2.123-1.114 3.363h-10.522v-5.761c.598.233 1.243.334 1.893.262.751.939 1.885 1.499 3.107 1.499s2.356-.56 3.107-1.5c1.195.133 2.394-.272 3.257-1.137.864-.864 1.27-2.062 1.137-3.257.939-.75 1.499-1.884 1.499-3.106 0-.342-.059-.675-.144-1h10.144c0 2.967 2.167 5.431 5 5.91zm-16.441 8.09c-.196-.701-.015-1.443.492-1.95.521-.521 1.291-.705 2.007-.482l.794.247.388-.737c.349-.665 1.024-1.078 1.76-1.078s1.411.413 1.76 1.079l.388.737.794-.247c.717-.225 1.487-.039 2.007.482.507.507.695 1.249.499 1.95h-10.889zm-6.559-13c0 .551-.449 1-1 1s-1-.449-1-1 .449-1 1-1 1 .449 1 1zm-3.859-.859c-.083.274-.141.558-.141.859 0 1.654 1.346 3 3 3s3-1.346 3-3c0-.352-.072-.686-.184-1h3.906c.179.302.278.645.278 1 0 .736-.413 1.411-1.079 1.76l-.737.388.247.794c.223.718.039 1.487-.482 2.007-.521.521-1.289.705-2.007.482l-.794-.247-.388.737c-.349.666-1.024 1.079-1.76 1.079s-1.411-.413-1.76-1.079l-.388-.737-.794.247c-.718.223-1.487.038-2.009-.483-.019-.018-.032-.039-.049-.058v-2.89c0-1.354.907-2.487 2.141-2.859zm-.141 43.859v-16.101c.323.066.658.101 1 .101s.677-.035 1-.101v16.101zm4-8v-9.026c.379-.287.716-.624 1-1.005.912 1.225 2.359 2.031 4 2.031s3.088-.806 4-2.031c.912 1.225 2.359 2.031 4 2.031s3.088-.806 4-2.031c.912 1.225 2.359 2.031 4 2.031s3.088-.806 4-2.031c.912 1.225 2.359 2.031 4 2.031s3.088-.806 4-2.031c.912 1.225 2.359 2.031 4 2.031s3.088-.806 4-2.031c.284.382.621.718 1 1.005v9.026zm46 8h-2v-16.101c.323.066.658.101 1 .101s.677-.035 1-.101zm-1-18c-1.654 0-3-1.346-3-3v-3h-2v3c0 1.654-1.346 3-3 3s-3-1.346-3-3v-3h-2v3c0 1.654-1.346 3-3 3s-3-1.346-3-3v-3h-2v3c0 1.654-1.346 3-3 3s-3-1.346-3-3v-3h-2v3c0 1.654-1.346 3-3 3s-3-1.346-3-3v-3h-2v3c0 1.654-1.346 3-3 3s-3-1.346-3-3v-3h-2v3c0 1.654-1.346 3-3 3s-3-1.346-3-3v-7h54v7c0 1.654-1.346 3-3 3z"/><circle cx="5" cy="39" r="1"/><circle cx="13" cy="39" r="1"/><circle cx="21" cy="39" r="1"/><circle cx="29" cy="39" r="1"/><circle cx="37" cy="39" r="1"/><circle cx="45" cy="39" r="1"/><circle cx="53" cy="39" r="1"/></g></g></svg>